<svg width="18" height="24" viewBox="0 0 18 24" xmlns="http://www.w3.org/2000/svg">
    <g fill="#808285" fill-rule="nonzero">
        <path d="M15.652 24H2.348C1.052 23.999 0 22.925 0 21.6V6.4c0-.22.175-.4.391-.4.216 0 .392.18.392.4v15.2c0 .884.7 1.6 1.565 1.6h13.304c.865 0 1.565-.716 1.565-1.6V2.4c0-.884-.7-1.6-1.565-1.6H6.261A.396.396 0 0 1 5.87.4c0-.22.175-.4.39-.4h9.392C16.948.001 18 1.075 18 2.4v19.2c-.001 1.325-1.052 2.399-2.348 2.4z"/>
        <path d="M5.087 6.8H.391a.391.391 0 0 1-.361-.247.407.407 0 0 1 .085-.436l5.87-6A.385.385 0 0 1 6.41.031.4.4 0 0 1 6.652.4v4.8c.013.428-.148.842-.445 1.145a1.504 1.504 0 0 1-1.12.455zM1.336 6h3.751a.728.728 0 0 0 .568-.22.763.763 0 0 0 .215-.58V1.366L1.336 6zM9 13.2c-1.08 0-1.957-.895-1.957-2s.876-2 1.957-2c1.08 0 1.957.895 1.957 2-.002 1.104-.877 1.999-1.957 2zM9 10c-.648 0-1.174.537-1.174 1.2 0 .663.526 1.2 1.174 1.2.648 0 1.174-.537 1.174-1.2 0-.663-.526-1.2-1.174-1.2z"/>
        <path d="M10.957 15.6a.396.396 0 0 1-.392-.4v-.4c0-.884-.7-1.6-1.565-1.6-.864 0-1.565.716-1.565 1.6v.4c0 .22-.175.4-.392.4a.396.396 0 0 1-.39-.4v-.4c0-1.325 1.05-2.4 2.347-2.4s2.348 1.075 2.348 2.4v.4c0 .22-.175.4-.391.4z"/>
        <path d="M9 16.4c-2.377 0-4.304-1.97-4.304-4.4 0-2.43 1.927-4.4 4.304-4.4 2.377 0 4.304 1.97 4.304 4.4-.002 2.429-1.928 4.397-4.304 4.4zm0-8c-1.945 0-3.522 1.612-3.522 3.6S7.055 15.6 9 15.6c1.945 0 3.522-1.612 3.522-3.6C12.52 10.013 10.944 8.402 9 8.4zM15.26 18.4H2.74a.396.396 0 0 1-.392-.4c0-.22.175-.4.391-.4h12.522c.216 0 .391.18.391.4 0 .22-.175.4-.391.4zM15.26 20H2.74a.396.396 0 0 1-.392-.4c0-.22.175-.4.391-.4h12.522c.216 0 .391.18.391.4 0 .22-.175.4-.391.4zM11.74 21.6H4.303a.396.396 0 0 1-.391-.4c0-.22.175-.4.391-.4h7.435c.216 0 .391.18.391.4 0 .22-.175.4-.39.4z"/>
        <circle cx="15.261" cy="21.2" r="1"/>
        <circle cx="13.696" cy="21.2" r="1"/>
        <path d="M14.087 5.6c-.864 0-1.565-.716-1.565-1.6 0-.884.7-1.6 1.565-1.6.864 0 1.565.716 1.565 1.6 0 .424-.165.831-.458 1.131-.294.3-.692.469-1.107.469zm0-2.4a.791.791 0 0 0-.783.8c0 .442.35.8.783.8a.791.791 0 0 0 .783-.8c0-.442-.35-.8-.783-.8z"/>
    </g>
</svg>
